<?xml version="1.0" encoding="UTF-8"?><svg id="Calque_1" xmlns="http://www.w3.org/2000/svg" viewBox="0 0 261.1 342.98"><defs><style>.cls-1{fill:#010101;}</style></defs><path class="cls-1" d="M100.08,159.56c-3-31.27-13.44-65.64-40.19-84.45-4.85-3.41-13.37-5.87-14.4-12.54s2.95-5.92-3.44-11.53c-2.58-2.27-7.71-6.67-10.26-2.81-3.9,5.91-2.74,17.34.04,23.51,4.53,10.07,12.64,11.82,20.59,17.58,10.08,7.29,18.22,19.55,22.21,31.3-38.53,8.88-61.53-16.21-69.86-51.02C.86,53.24-.95,29.94.49,13.19,1.57.64,8.64-.47,19.6.13c48.35,2.65,101.34,23.95,96.1,81.11-.58,6.29-4.96,15.81-5.12,20.38-.11,3.14,3.97,7.92,3.72,11.52,1.43.35,1.44-.52,2.11-1.25,2.43-2.67,4.81-6.38,7.23-9.23,1.19-1.41,4.69-4.05,5.24-5.24.77-1.7.75-9.89,1.26-12.97,8.62-52.49,55.93-60.24,101.18-53.51,8.32,1.24,28.07,3.05,29.64,13.02,1.11,7.02-4.65,22.95-7.23,30.1-15.86,43.93-49.16,87.78-99.76,55.92,6.89-9.13,19.29-16.5,30.11-20.03,10.08-3.3,20.68-2.76,28.69-10.99,5.16-5.3,9.51-16.74,7.5-24.05-1.26-4.61-15.7-.11-16.09,1.28-.26.93.72,2.37.63,3.58-.39,5.25-4.08,9.66-9.06,11.16-6.41,1.94-12.99,2.55-19.71,4.99-18.16,6.57-34.38,19.95-44.54,36.3-5.28,8.5-9.96,17.02-7.47,27.34h80.47c7.02,0,15.33,10.1,16.1,16.84.72,6.36.79,25.12-.18,31.26-1.25,7.9-9.36,15.08-17.38,15.56H24.07c-7.86-.12-14.71-5.22-17.39-12.55s-2.64-31.53,0-38.59c1.86-4.99,9.72-12.52,15.18-12.52h78.22Z"/><path d="M209.36,238.91l-10.96,81.47c-2.74,12.41-11.67,21.21-24.56,22.6l-122.03-.03c-14.65-1.96-23.94-13.74-24.98-28.17l-9.84-75.87h192.37Z"/></svg>