<?xml version="1.0" encoding="UTF-8"?><svg id="Calque_3" xmlns="http://www.w3.org/2000/svg" viewBox="0 0 578.47 414.04"><defs><style>.cls-1{stroke:#000;stroke-miterlimit:10;}</style></defs><path class="cls-1" d="M60.17,10.75c-.3.44-.54.95-.91,1.32C42.31,29.05,25.35,46.01,8.4,63c-1.28,1.28-2.66,2.12-4.52,1.72-3.22-.69-4.47-4.55-2.3-7.05.26-.3.56-.58.84-.86C20.53,38.71,38.64,20.6,56.74,2.5c2.66-2.66,4.78-2.67,7.44,0,18.14,18.13,36.27,36.27,54.41,54.4,1.01,1.01,1.85,2.06,1.83,3.57-.01,1.83-.87,3.18-2.49,3.95-1.59.75-3.13.52-4.51-.57-.42-.33-.78-.74-1.16-1.11-16.87-16.88-33.73-33.76-50.59-50.65-.37-.37-.62-.87-.93-1.3-.19,0-.38-.02-.58-.02Z"/><path class="cls-1" d="M60.47,120.48c-8.61,0-17.21,0-25.82,0-11.7,0-21.28-9.58-21.29-21.28,0-8.56,0-17.13,0-25.69,0-1.98,1.07-3.52,2.79-4.15,1.66-.61,3.58-.27,4.59,1.18.64.92,1.11,2.18,1.13,3.29.09,8.38.05,16.77.05,25.15,0,7.31,5.67,12.94,12.98,12.94,17.04-.01,34.07-.01,51.11,0,7.32,0,12.99-5.62,13-12.93,0-8.47,0-16.95,0-25.42,0-2.39,1.57-4.2,3.77-4.46,2.11-.25,4.09,1.1,4.63,3.2.13.51.15,1.06.15,1.59,0,8.52.02,17.04,0,25.55-.03,11.31-9.54,20.89-20.88,21.02-4.37.05-8.74,0-13.11,0-4.37,0-8.74,0-13.11,0h0Z"/></svg>