<?xml version="1.0" encoding="UTF-8"?><svg id="Calque_2" xmlns="http://www.w3.org/2000/svg" viewBox="0 0 578.47 414.04"><path d="M555.14,375.1c-1.04-.73-2.21-1.32-3.11-2.2-11.21-10.97-22.37-21.98-33.55-32.98-.28-.28-.58-.54-.92-.86-.39.26-.76.49-1.1.75-7.41,5.65-15.72,9.33-24.88,10.89-13.69,2.33-26.72.29-38.82-6.68-12.54-7.22-21.48-17.59-25.9-31.42-5.8-18.17-3.14-35.23,8.17-50.64,9.4-12.82,22.21-20.39,37.92-22.71,13.54-2,26.35.44,38.13,7.57,13.47,8.15,22.51,19.79,26.12,35.15,4.35,18.53.03,35.16-12.18,49.75-.26.31-.52.61-.77.92-.06.07-.09.15-.22.37.26.27.54.59.84.88,11.08,10.91,22.17,21.81,33.23,32.74.92.91,1.59,2.08,2.38,3.13v1.87c-.58,1.73-1.77,2.85-3.47,3.47h-1.87ZM432.8,294.84c.1,1.98.1,3.63.29,5.26,1.23,10.31,5.15,19.45,12.32,27.01,12.53,13.24,28.02,18.21,45.76,14.76,15.56-3.03,27.18-11.98,34.08-26.37,6.95-14.51,6.52-29.18-1.25-43.2-7.97-14.37-20.55-22.57-36.86-24.57-12.88-1.58-24.73,1.55-35.11,9.41-12.56,9.51-18.8,22.33-19.23,37.7Z"/><path d="M481.93,238.59c-2.95,0-5.95.23-8.97.67-15.71,2.32-28.52,9.89-37.92,22.71-11.3,15.41-13.97,32.48-8.17,50.64,4.42,13.83,13.36,24.2,25.9,31.42,8.93,5.14,18.36,7.6,28.18,7.6,3.49,0,7.04-.31,10.63-.92,9.16-1.56,17.47-5.24,24.88-10.89.34-.26.72-.49,1.1-.75.34.32.64.58.92.86,11.18,11,22.35,22.01,33.55,32.98.89.88,2.07,1.47,3.11,2.2h1.87c1.7-.61,2.89-1.74,3.47-3.47v-1.87c-.79-1.05-1.46-2.21-2.38-3.13-11.06-10.94-22.15-21.83-33.23-32.74-.3-.3-.58-.61-.84-.88.13-.22.17-.3.22-.37.26-.31.52-.61.77-.92,12.21-14.59,16.53-31.22,12.18-49.75-3.61-15.36-12.64-27-26.12-35.15-9.14-5.53-18.91-8.25-29.16-8.25h0ZM480.54,342.93c-13.34,0-25.17-5.3-35.13-15.82-7.16-7.56-11.09-16.71-12.32-27.01-.19-1.63-.19-3.28-.29-5.26.43-15.37,6.68-28.18,19.23-37.7,8.64-6.55,18.29-9.81,28.71-9.81,2.1,0,4.24.13,6.4.4,16.31,2.01,28.89,10.2,36.86,24.57,7.78,14.02,8.2,28.69,1.25,43.2-6.89,14.4-18.52,23.35-34.08,26.37-3.64.71-7.19,1.06-10.63,1.06h0Z"/></svg>